<?xml version="1.0" encoding="UTF-8"?>
<svg id="Layer_2" xmlns="http://www.w3.org/2000/svg" version="1.1" viewBox="0 0 113.73 122.6">
  <!-- Generator: Adobe Illustrator 29.3.1, SVG Export Plug-In . SVG Version: 2.1.0 Build 151)  -->
  <defs>
    <style>
      .st0 {
        fill: #2097d1;
      }

      .st1 {
        fill: #1b2a41;
      }
    </style>
  </defs>
  <g>
    <path class="st1" d="M110.5,113.66l-17.63-18.63c4.15-5.14,6.65-11.67,6.65-18.77,0-16.49-13.42-29.91-29.91-29.91s-29.91,13.42-29.91,29.91,13.42,29.91,29.91,29.91c6.51,0,12.53-2.1,17.45-5.64l17.63,18.64c.79.83,1.85,1.25,2.91,1.25.99,0,1.98-.36,2.75-1.09,1.6-1.52,1.67-4.05.16-5.65ZM69.6,98.16c-12.08,0-21.91-9.83-21.91-21.91s9.83-21.91,21.91-21.91,21.91,9.83,21.91,21.91-9.83,21.91-21.91,21.91Z"/>
    <path class="st1" d="M16.58,85.65c-3.63,0-6.58-2.95-6.58-6.58V15.91c0-3.63,2.95-6.58,6.58-6.58h67.53c3.63,0,6.58,2.95,6.58,6.58v30.69c3.05,2.17,5.75,4.8,8,7.78V15.91c0-8.04-6.54-14.58-14.58-14.58H16.58C8.54,1.33,2,7.87,2,15.91v63.16c0,8.04,6.54,14.58,14.58,14.58h21.05c-1.37-2.5-2.45-5.19-3.2-8h-17.85Z"/>
  </g>
  <g>
    <path class="st0" d="M36,62.23v-23.31c0-1.81-1.47-3.27-3.27-3.27h-9.82c-1.81,0-3.27,1.47-3.27,3.27v37.32h13.55c0-4.97,1-9.7,2.81-14.02Z"/>
    <path class="st0" d="M58.53,41.57v-12.46c0-1.81-1.47-3.27-3.27-3.27h-9.82c-1.81,0-3.27,1.47-3.27,3.27v23.25c4.32-4.96,9.96-8.74,16.36-10.79Z"/>
    <path class="st0" d="M69.6,39.84c4.08,0,8,.69,11.67,1.93v-22.48c0-1.81-1.47-3.27-3.27-3.27h-9.82c-1.81,0-3.27,1.47-3.27,3.27v20.86c1.54-.2,3.1-.31,4.69-.31Z"/>
  </g>
</svg>