<?xml version="1.0" encoding="UTF-8"?>
<svg id="Layer_2" xmlns="http://www.w3.org/2000/svg" version="1.1" viewBox="0 0 340.04 122.6">
  <!-- Generator: Adobe Illustrator 29.3.1, SVG Export Plug-In . SVG Version: 2.1.0 Build 151)  -->
  <defs>
    <style>
      .st0 {
        fill: #2097d1;
      }

      .st1 {
        fill: #1b2a41;
      }
    </style>
  </defs>
  <g>
    <path class="st1" d="M132.67,34.06h-15.54v35.39h7.42v-12.82h8.71c3.66,0,6.55-1.02,8.66-3.07,2.11-2.05,3.17-4.75,3.17-8.12s-1.06-5.89-3.17-8.07c-2.15-2.21-5.23-3.32-9.26-3.32ZM136.23,49.38c-.99.94-2.41,1.41-4.26,1.41h-7.42v-10.49h7.52c1.78,0,3.17.45,4.16,1.36.99.91,1.48,2.19,1.48,3.84s-.5,2.95-1.48,3.89Z"/>
    <path class="st1" d="M168.7,65.69v-12.92c0-6.24-3.56-9.35-10.69-9.35-3.5,0-6.17.79-8.02,2.38-1.85,1.58-2.82,3.58-2.92,5.99h5.99c.2-2.38,1.83-3.56,4.9-3.56,1.39,0,2.44.27,3.17.82.73.54,1.09,1.28,1.09,2.2s-.43,1.51-1.29,1.86c-.86.35-2.47.69-4.85,1.01-3.23.46-5.74,1.3-7.52,2.5-1.78,1.2-2.67,3.09-2.67,5.67s.81,4.39,2.43,5.74c1.62,1.35,3.76,2.03,6.43,2.03,2.01,0,3.58-.3,4.7-.89,1.12-.59,2.05-1.44,2.77-2.52h.1c.2,1.45.46,2.39.79,2.82h6.48v-.25c-.59-.43-.89-1.6-.89-3.51ZM162.37,60.49c0,1.32-.54,2.46-1.61,3.42-1.07.96-2.53,1.44-4.38,1.44-2.64,0-3.96-1.07-3.96-3.22,0-1.12.4-1.96,1.19-2.5.79-.54,2.14-1.03,4.06-1.46,2.41-.56,3.98-1.06,4.7-1.48v3.81Z"/>
    <path class="st1" d="M189.84,46.73h-.1c-1.62-2.24-3.96-3.37-7.03-3.37-3.23,0-5.87,1.13-7.92,3.39-2.05,2.26-3.07,5.27-3.07,9.03s1.11,6.6,3.34,8.81c2.23,2.21,4.84,3.32,7.85,3.32,2.67,0,4.88-.99,6.63-2.97h.15v2.77c0,3.53-1.88,5.3-5.64,5.3-2.74,0-4.44-.94-5.1-2.82h-6.68c.36,2.51,1.58,4.45,3.64,5.84,2.06,1.39,4.81,2.08,8.24,2.08,4.06,0,7.11-.96,9.16-2.87,2.01-1.85,3.02-4.42,3.02-7.72v-23.46h-6.48v2.67ZM188.55,60.59c-.99,1.29-2.49,1.93-4.5,1.93-1.75,0-3.14-.6-4.18-1.81-1.04-1.2-1.56-2.88-1.56-5.02s.52-3.79,1.56-5.05c1.04-1.25,2.42-1.88,4.13-1.88,1.95,0,3.44.65,4.48,1.96,1.04,1.3,1.56,2.94,1.56,4.92s-.5,3.66-1.48,4.95Z"/>
    <path class="st1" d="M221.22,47.52c-2.18-2.77-5.26-4.16-9.26-4.16-3.66,0-6.67,1.28-9.01,3.84-2.34,2.56-3.51,5.73-3.51,9.53s1.17,7.15,3.51,9.68c2.34,2.52,5.56,3.79,9.65,3.79,3.13,0,5.71-.79,7.72-2.38,2.01-1.58,3.27-3.56,3.76-5.94h-6.63c-.79,2.08-2.42,3.12-4.9,3.12-1.88,0-3.37-.55-4.45-1.66-1.09-1.1-1.77-2.66-2.03-4.68h18.41c0-4.65-1.09-8.37-3.27-11.14ZM206.17,54.01c.66-3.63,2.62-5.44,5.89-5.44,1.52,0,2.77.5,3.76,1.51.99,1.01,1.53,2.32,1.63,3.94h-11.29Z"/>
    <path class="st1" d="M237.9,34.06l-12.32,35.39h7.28l2.33-7.52h12.77l2.38,7.52h7.47l-12.47-35.39h-7.42ZM236.86,56.43l3.17-10.2c.4-1.25.89-3.07,1.48-5.44h.1l1.44,5.44,3.17,10.2h-9.35Z"/>
    <path class="st1" d="M275.27,58.71c0,1.72-.46,3.1-1.39,4.16-.92,1.06-2.16,1.58-3.71,1.58-2.8,0-4.21-1.53-4.21-4.6v-15.79h-6.68v16.93c0,2.81.78,5.03,2.33,6.68,1.55,1.65,3.71,2.47,6.48,2.47,1.72,0,3.13-.3,4.23-.89,1.1-.59,2.12-1.52,3.04-2.77h.15v2.97h6.48v-25.39h-6.73v14.65Z"/>
    <path class="st1" d="M303.28,47.13h-.15c-1.62-2.51-4.01-3.76-7.18-3.76s-5.77,1.25-7.8,3.74c-2.03,2.49-3.04,5.72-3.04,9.68s.99,7.35,2.97,9.78,4.57,3.64,7.77,3.64c3.4,0,5.92-1.35,7.57-4.06h.1v3.32h6.48v-35.39h-6.73v13.07ZM301.87,62.52c-1.04,1.35-2.55,2.03-4.53,2.03-1.72,0-3.04-.68-3.98-2.03-.94-1.35-1.41-3.27-1.41-5.74s.48-4.34,1.44-5.79c.96-1.45,2.34-2.18,4.16-2.18,3.93,0,5.89,2.71,5.89,8.12,0,2.38-.52,4.24-1.56,5.59Z"/>
    <rect class="st1" x="314.37" y="34.06" width="6.73" height="6.04"/>
    <rect class="st1" x="314.37" y="44.06" width="6.73" height="25.39"/>
    <path class="st1" d="M336.59,64.5c-1.68,0-2.52-.84-2.52-2.52v-13.46h4.36v-4.45h-4.36v-7.92h-6.58v7.92h-3.51v4.45h3.51v14.9c0,2.18.66,3.74,1.98,4.68,1.32.94,2.95,1.41,4.9,1.41,1.78,0,3.18-.03,4.21-.1v-4.95l-1.98.05Z"/>
    <path class="st1" d="M92.86,95.03c4.15-5.14,6.65-11.67,6.65-18.77,0-16.49-13.42-29.91-29.91-29.91s-29.91,13.42-29.91,29.91,13.42,29.91,29.91,29.91c6.51,0,12.53-2.1,17.45-5.64l17.63,18.64c.79.83,1.85,1.25,2.91,1.25.99,0,1.98-.36,2.75-1.09,1.6-1.52,1.67-4.05.16-5.65l-17.63-18.63ZM69.6,98.16c-12.08,0-21.91-9.83-21.91-21.91s9.83-21.91,21.91-21.91,21.91,9.83,21.91,21.91-9.83,21.91-21.91,21.91Z"/>
    <path class="st1" d="M16.58,85.65c-3.63,0-6.58-2.95-6.58-6.58V15.91c0-3.63,2.95-6.58,6.58-6.58h67.53c3.63,0,6.58,2.95,6.58,6.58v30.69c3.05,2.17,5.75,4.8,8,7.78V15.91c0-8.04-6.54-14.58-14.58-14.58H16.58C8.54,1.33,2,7.87,2,15.91v63.16c0,8.04,6.54,14.58,14.58,14.58h21.05c-1.37-2.5-2.45-5.19-3.2-8h-17.85Z"/>
  </g>
  <g>
    <path class="st0" d="M36,62.23v-23.31c0-1.81-1.47-3.27-3.27-3.27h-9.82c-1.81,0-3.27,1.47-3.27,3.27v37.32h13.55c0-4.97,1-9.7,2.81-14.02Z"/>
    <path class="st0" d="M58.53,41.57v-12.46c0-1.81-1.47-3.27-3.27-3.27h-9.82c-1.81,0-3.27,1.47-3.27,3.27v23.25c4.32-4.96,9.96-8.74,16.36-10.79Z"/>
    <path class="st0" d="M69.6,39.84c4.08,0,8,.69,11.67,1.93v-22.48c0-1.81-1.47-3.27-3.27-3.27h-9.82c-1.81,0-3.27,1.47-3.27,3.27v20.86c1.54-.2,3.1-.31,4.69-.31Z"/>
  </g>
</svg>